<svg xmlns="http://www.w3.org/2000/svg" width="640" height="400" viewBox="0 0 640 400">
<rect x="20" y="20" width="360" height="360" fill="#f4f1e8" stroke="#999999"/>
<circle cx="200.0" cy="200.0" r="163.6" fill="none" stroke="#222222" stroke-width="0.8"/>
<circle cx="200.0" cy="200.0" r="147.3" fill="none" stroke="#222222" stroke-width="0.8"/>
<circle cx="200.0" cy="200.0" r="130.9" fill="none" stroke="#222222" stroke-width="0.8"/>
<circle cx="200.0" cy="200.0" r="114.5" fill="none" stroke="#222222" stroke-width="0.8"/>
<circle cx="200.0" cy="200.0" r="98.2" fill="none" stroke="#222222" stroke-width="0.8"/>
<circle cx="200.0" cy="200.0" r="81.8" fill="none" stroke="#222222" stroke-width="0.8"/>
<circle cx="200.0" cy="200.0" r="65.5" fill="#111111" stroke="#ffffff" stroke-width="0.8"/>
<circle cx="200.0" cy="200.0" r="49.1" fill="#111111" stroke="#ffffff" stroke-width="0.8"/>
<circle cx="200.0" cy="200.0" r="32.7" fill="#111111" stroke="#ffffff" stroke-width="0.8"/>
<circle cx="200.0" cy="200.0" r="16.4" fill="#111111" stroke="#ffffff" stroke-width="0.8"/>
<circle class="shot" cx="187.0" cy="218.7" r="4" fill="#c0392b" stroke="#ffffff" stroke-width="0.8"/>
<circle class="shot" cx="183.8" cy="103.0" r="4" fill="#c0392b" stroke="#ffffff" stroke-width="0.8"/>
<circle class="shot" cx="186.6" cy="71.2" r="4" fill="#c0392b" stroke="#ffffff" stroke-width="0.8"/>
<circle class="shot" cx="195.2" cy="74.5" r="4" fill="#c0392b" stroke="#ffffff" stroke-width="0.8"/>
<circle class="shot" cx="185.7" cy="79.2" r="4" fill="#c0392b" stroke="#ffffff" stroke-width="0.8"/>
<circle class="shot" cx="187.8" cy="217.6" r="4" fill="#2471a3" stroke="#ffffff" stroke-width="0.8"/>
<circle class="shot" cx="184.8" cy="229.5" r="4" fill="#2471a3" stroke="#ffffff" stroke-width="0.8"/>
<circle class="shot" cx="187.4" cy="212.0" r="4" fill="#2471a3" stroke="#ffffff" stroke-width="0.8"/>
<circle class="shot" cx="195.5" cy="217.9" r="4" fill="#2471a3" stroke="#ffffff" stroke-width="0.8"/>
<circle class="shot" cx="186.6" cy="224.3" r="4" fill="#2471a3" stroke="#ffffff" stroke-width="0.8"/>
<circle class="shot" cx="188.7" cy="216.3" r="4" fill="#1e8449" stroke="#ffffff" stroke-width="0.8"/>
<circle class="shot" cx="185.9" cy="227.4" r="4" fill="#1e8449" stroke="#ffffff" stroke-width="0.8"/>
<circle class="shot" cx="188.3" cy="211.1" r="4" fill="#1e8449" stroke="#ffffff" stroke-width="0.8"/>
<circle class="shot" cx="195.8" cy="216.6" r="4" fill="#1e8449" stroke="#ffffff" stroke-width="0.8"/>
<circle class="shot" cx="187.6" cy="222.6" r="4" fill="#1e8449" stroke="#ffffff" stroke-width="0.8"/>
<line x1="392" y1="20" x2="392" y2="380" stroke="#dddddd"/>
<text x="400" y="38" font-family="sans-serif" font-size="12" fill="#333333">Gun: <tspan font-weight="bold">Glock 17</tspan></text>
<text x="400" y="58" font-family="sans-serif" font-size="12" fill="#333333">Ammo: <tspan font-weight="bold">9x19mm 124 gr Underwood FMJ +P</tspan></text>
<text x="400" y="78" font-family="sans-serif" font-size="12" fill="#333333">Shooter: <tspan font-weight="bold">Commando Cassie</tspan></text>
<text x="400" y="98" font-family="sans-serif" font-size="12" fill="#333333">Range: <tspan font-weight="bold">25 m</tspan></text>
<text x="400" y="118" font-family="sans-serif" font-size="12" fill="#333333">String: <tspan font-weight="bold">5 rds / 5.0 s</tspan></text>
<text x="400" y="148" font-family="sans-serif" font-size="12" font-weight="bold" fill="#333333">Stance comparison</text>
<rect x="400" y="160" width="11" height="11" fill="#c0392b" stroke="#ffffff" stroke-width="0.5"/>
<text x="418" y="170" font-family="sans-serif" font-size="12" fill="#333333">standing: 22.5 cm, 22 (0X)</text>
<text x="418" y="188" font-family="sans-serif" font-size="10" fill="#777777">walk 21.3 cm</text>
<rect x="400" y="196" width="11" height="11" fill="#2471a3" stroke="#ffffff" stroke-width="0.5"/>
<text x="418" y="206" font-family="sans-serif" font-size="12" fill="#333333">crouching: 2.7 cm, 44 (0X)</text>
<text x="418" y="224" font-family="sans-serif" font-size="10" fill="#777777">walk -1.0 cm</text>
<rect x="400" y="232" width="11" height="11" fill="#1e8449" stroke="#ffffff" stroke-width="0.5"/>
<text x="418" y="242" font-family="sans-serif" font-size="12" fill="#333333">prone: 2.5 cm, 46 (0X)</text>
<text x="418" y="260" font-family="sans-serif" font-size="10" fill="#777777">walk -1.0 cm</text>
</svg>