<svg xmlns="http://www.w3.org/2000/svg" width="640" height="400" viewBox="0 0 640 400">
<rect x="20" y="20" width="360" height="360" fill="#f4f1e8" stroke="#999999"/>
<circle cx="200.0" cy="200.0" r="163.6" fill="none" stroke="#222222" stroke-width="0.8"/>
<circle cx="200.0" cy="200.0" r="147.3" fill="none" stroke="#222222" stroke-width="0.8"/>
<circle cx="200.0" cy="200.0" r="130.9" fill="none" stroke="#222222" stroke-width="0.8"/>
<circle cx="200.0" cy="200.0" r="114.5" fill="none" stroke="#222222" stroke-width="0.8"/>
<circle cx="200.0" cy="200.0" r="98.2" fill="none" stroke="#222222" stroke-width="0.8"/>
<circle cx="200.0" cy="200.0" r="81.8" fill="none" stroke="#222222" stroke-width="0.8"/>
<circle cx="200.0" cy="200.0" r="65.5" fill="#111111" stroke="#ffffff" stroke-width="0.8"/>
<circle cx="200.0" cy="200.0" r="49.1" fill="#111111" stroke="#ffffff" stroke-width="0.8"/>
<circle cx="200.0" cy="200.0" r="32.7" fill="#111111" stroke="#ffffff" stroke-width="0.8"/>
<circle cx="200.0" cy="200.0" r="16.4" fill="#111111" stroke="#ffffff" stroke-width="0.8"/>
<circle class="shot" cx="205.7" cy="214.2" r="4" fill="#c0392b" stroke="#ffffff" stroke-width="0.8"/>
<circle class="shot" cx="196.3" cy="210.5" r="4" fill="#c0392b" stroke="#ffffff" stroke-width="0.8"/>
<circle class="shot" cx="198.4" cy="218.0" r="4" fill="#c0392b" stroke="#ffffff" stroke-width="0.8"/>
<circle class="shot" cx="192.3" cy="215.1" r="4" fill="#c0392b" stroke="#ffffff" stroke-width="0.8"/>
<circle class="shot" cx="189.0" cy="215.7" r="4" fill="#c0392b" stroke="#ffffff" stroke-width="0.8"/>
<line x1="392" y1="20" x2="392" y2="380" stroke="#dddddd"/>
<text x="400" y="38" font-family="sans-serif" font-size="12" fill="#333333">Scenario: <tspan font-weight="bold">Cadence comparison - Cassie slow fire</tspan></text>
<text x="400" y="58" font-family="sans-serif" font-size="12" fill="#333333">Gun: <tspan font-weight="bold">Glock 17</tspan></text>
<text x="400" y="78" font-family="sans-serif" font-size="12" fill="#333333">Ammo: <tspan font-weight="bold">9x19mm 115 gr Federal FMJ</tspan></text>
<text x="400" y="98" font-family="sans-serif" font-size="12" fill="#333333">Shooter: <tspan font-weight="bold">Commando Cassie</tspan></text>
<text x="400" y="118" font-family="sans-serif" font-size="12" fill="#333333">Range: <tspan font-weight="bold">25 m</tspan></text>
<text x="400" y="138" font-family="sans-serif" font-size="12" fill="#333333">String: <tspan font-weight="bold">5 rds / 50 s</tspan></text>
<text x="400" y="158" font-family="sans-serif" font-size="12" fill="#333333">Score: <tspan font-weight="bold">47 (0X)</tspan></text>
<text x="400" y="178" font-family="sans-serif" font-size="12" fill="#333333">Group: <tspan font-weight="bold">2.6 cm</tspan></text>
<text x="400" y="198" font-family="sans-serif" font-size="12" fill="#333333">MPI: <tspan font-weight="bold">-0.6, -2.2 cm</tspan></text>
</svg>